<?xml version="1.0" encoding="UTF-8"?>
<!DOCTYPE svg PUBLIC "-//W3C//DTD SVG 1.1//EN" "http://www.w3.org/Graphics/SVG/1.1/DTD/svg11.dtd">
<!-- Creator: CorelDRAW -->
<svg xmlns="http://www.w3.org/2000/svg" xml:space="preserve" width="52mm" height="52mm" version="1.1" style="shape-rendering:geometricPrecision; text-rendering:geometricPrecision; image-rendering:optimizeQuality; fill-rule:evenodd; clip-rule:evenodd"
viewBox="0 0 5200 5200"
 xmlns:xlink="http://www.w3.org/1999/xlink"
 xmlns:xodm="http://www.corel.com/coreldraw/odm/2003">
 <defs>
  <style type="text/css">
   <![CDATA[
    .fil0 {fill:#231A15}
   ]]>
  </style>
 </defs>
 <g id="Layer_x0020_1">
  <metadata id="CorelCorpID_0Corel-Layer"/>
  <path class="fil0" d="M3457.42 681.96l-230.21 191.57c-7.56,6.28 -18.78,5.25 -25.06,-2.3 -1.44,-1.73 -2.5,-3.66 -3.21,-5.66 -19.31,-57.02 -44.77,-109.93 -75.32,-158.33 -92.23,-146.14 -231.11,-251.93 -387.68,-307.4 -156.58,-55.48 -330.77,-60.63 -493.62,-5.5 -53.89,18.25 -106.52,43.07 -156.81,74.81l-0.97 0.57c-49.61,31.16 -94.7,68.03 -134.82,109.37 -115.67,119.21 -189.18,275.2 -210.22,439 -21.03,163.71 10.34,335.18 104.38,485.39 31.3,49.99 69.67,97.75 115.46,142.18 179.21,174.7 527.33,236.22 866.97,296.24 206.39,36.47 409.7,72.4 572.79,133.31 104.44,39.16 204.79,87.71 297.98,149.14 80.75,53.22 156.04,116.02 223.9,190.62l0 -522.24c0,-9.87 8,-17.87 17.87,-17.87l313.55 0c9.87,0 17.87,8 17.87,17.87l0 3227.67c0,9.87 -8,17.87 -17.87,17.87l-313.55 0c-9.87,0 -17.87,-8 -17.87,-17.87l0 -565.99c-269.98,349.39 -662.89,566.3 -1078.81,632.05 -421.44,66.63 -866.57,-21.97 -1231.41,-285.16 -10.55,-7.62 -20.13,-14.68 -28.72,-21.17 -127.15,-96.07 -237.9,-209.7 -330.71,-335.8 -210.81,-286.42 -328.93,-637.24 -336.66,-992.81 -7.73,-355.74 95,-716.25 325.91,-1021.86 119.29,-157.88 256.46,-283.91 421.64,-390.91 43.03,33.15 137.11,102.84 288.48,167.24 5.13,3.8 4.02,7.65 -0.05,12.16 -196.83,133.21 -300.5,221.86 -450.67,434.05 -156.14,220.62 -230.18,478.97 -232.88,737.34 -2.71,258.67 66.04,517.3 195.45,738.18 91.55,156.28 213.44,293.61 361.83,398.56 231.56,163.51 490.27,237.58 744.74,237.58 218.54,0 433.96,-54.58 626.38,-154 192.45,-99.43 361.92,-243.7 488.57,-423.06 147.48,-208.87 236.91,-465.46 236.91,-754.37 0,-305.76 -52.21,-534.36 -150.72,-707.99 -98.06,-172.84 -242.5,-291.82 -427.36,-378.82 -213.94,-101.11 -451.59,-142.74 -686.05,-183.81 -354.14,-62.04 -701.15,-122.84 -956.86,-384.19 -49.81,-50.54 -93.41,-103.89 -131.04,-159.35 -154.28,-227.38 -206.97,-488.92 -176.09,-737.89 30.88,-248.87 145.29,-485.31 325.21,-662.63 45.92,-45.25 96.21,-86.72 150.54,-123.64 47.89,-32.63 97.62,-60.87 148.67,-84.82 242.16,-113.6 511.96,-129.02 758.95,-60.61 246.99,68.42 471.26,220.67 622.33,442.39 32.11,47.13 60.98,97.54 86.09,151.07 3.51,7.5 1.33,16.21 -4.75,21.29l-21.4 17.71 -1.08 0.82z"/>
 </g>
</svg>
