<?xml version="1.0" encoding="UTF-8"?>
<!DOCTYPE svg PUBLIC "-//W3C//DTD SVG 1.1//EN" "http://www.w3.org/Graphics/SVG/1.1/DTD/svg11.dtd">
<!-- Creator: CorelDRAW -->
<svg xmlns="http://www.w3.org/2000/svg" xml:space="preserve" width="44mm" height="52mm" version="1.1" style="shape-rendering:geometricPrecision; text-rendering:geometricPrecision; image-rendering:optimizeQuality; fill-rule:evenodd; clip-rule:evenodd"
viewBox="0 0 4400 5200"
 xmlns:xlink="http://www.w3.org/1999/xlink"
 xmlns:xodm="http://www.corel.com/coreldraw/odm/2003">
 <defs>
  <style type="text/css">
   <![CDATA[
    .fil2 {fill:#444444}
    .fil0 {fill:black;fill-rule:nonzero}
    .fil1 {fill:#444444;fill-rule:nonzero}
   ]]>
  </style>
 </defs>
 <g id="Layer_x0020_1">
  <metadata id="CorelCorpID_0Corel-Layer"/>
  <path class="fil0" d="M2792.75 607.94l-212.69 176.98c-145.83,-430.76 -666.52,-613.96 -1048.11,-373.13 -362.94,227.23 -464.73,771.71 -118.72,1107.47 269.68,262.88 934.53,251.02 1329.65,398.58 189.93,71.22 364.67,176.41 502.04,340.89l0 -524.03 288.33 0 0 2968.01 -288.33 0 0 -569.86c-491.85,681.78 -1484,844.6 -2157.32,335.83 -750.24,-566.85 -871.45,-1804.51 10.19,-2453.41 56.35,50.26 211.41,141.09 272.11,154.81 -834.47,488.9 -734.47,1627.65 -78.78,2091.68 802.22,566.46 1953.8,-18.65 1953.8,-1019.27 0,-568.19 -195.06,-851.39 -541.01,-1014.21 -495.25,-234.03 -1119.4,-123.78 -1506.06,-518.96 -463,-469.8 -327.3,-1197.41 152.63,-1523.04 500.31,-340.89 1204.14,-144.17 1461.95,405.37l-19.68 16.29z"/>
  <polygon class="fil1" points="2135.22,5197.73 64.31,5197.73 64.31,3265.48 113.6,3265.48 113.6,5148.44 2135.22,5148.44 "/>
  <polygon class="fil1" points="3636.9,1728.81 4333.04,1728.81 4333.04,1758.8 3636.9,1758.8 "/>
  <polygon class="fil2" points="4127.25,2156.13 4296.56,2156.13 4127.25,1756.13 3957.93,2156.13 "/>
  <polygon class="fil1" points="3636.9,4687.2 4333.04,4687.2 4333.04,4717.21 3636.9,4717.21 "/>
  <polygon class="fil1" points="4147.25,2156.13 4147.25,4289.89 4107.26,4289.89 4107.26,2156.13 "/>
  <polygon class="fil2" points="4127.25,4289.89 4296.56,4289.89 4127.25,4689.89 3957.93,4289.89 "/>
 </g>
</svg>
