<?xml version="1.0" encoding="UTF-8"?>
<!DOCTYPE svg PUBLIC "-//W3C//DTD SVG 1.1//EN" "http://www.w3.org/Graphics/SVG/1.1/DTD/svg11.dtd">
<!-- Creator: CorelDRAW -->
<svg xmlns="http://www.w3.org/2000/svg" xml:space="preserve" width="64mm" height="64mm" version="1.1" style="shape-rendering:geometricPrecision; text-rendering:geometricPrecision; image-rendering:optimizeQuality; fill-rule:evenodd; clip-rule:evenodd"
viewBox="0 0 6400 6400"
 xmlns:xlink="http://www.w3.org/1999/xlink"
 xmlns:xodm="http://www.corel.com/coreldraw/odm/2003">
 <defs>
  <style type="text/css">
   <![CDATA[
    .fil1 {fill:#231A15}
    .fil0 {fill:#F7F7F7}
   ]]>
  </style>
 </defs>
 <g id="Layer_x0020_1">
  <metadata id="CorelCorpID_0Corel-Layer"/>
  <circle class="fil0" cx="3192.27" cy="3207.73" r="3200"/>
  <path class="fil1" d="M3996.78 1359.21l-211.42 175.92c-6.93,5.77 -17.24,4.83 -23.01,-2.11 -1.32,-1.59 -2.29,-3.36 -2.95,-5.19 -17.73,-52.37 -41.11,-100.96 -69.16,-145.41 -84.7,-134.21 -212.25,-231.35 -356.03,-282.3 -143.79,-50.95 -303.76,-55.67 -453.31,-5.05 -49.5,16.76 -97.83,39.56 -144.01,68.7l-0.9 0.53c-45.55,28.61 -86.96,62.47 -123.8,100.43 -106.23,109.48 -173.73,252.74 -193.06,403.16 -19.31,150.34 9.5,307.81 95.86,445.76 28.75,45.91 63.98,89.76 106.03,130.57 164.58,160.43 484.27,216.93 796.18,272.05 189.54,33.49 376.25,66.49 526.02,122.42 95.92,35.97 188.06,80.55 273.65,136.96 74.15,48.88 143.3,106.55 205.62,175.06l0 -479.6c0,-9.06 7.35,-16.41 16.41,-16.41l287.95 0c9.06,0 16.41,7.35 16.41,16.41l0 2964.12c0,9.07 -7.35,16.41 -16.41,16.41l-287.95 0c-9.06,0 -16.41,-7.34 -16.41,-16.41l0 -519.78c-247.94,320.87 -608.77,520.07 -990.72,580.45 -387.03,61.19 -795.82,-20.18 -1130.86,-261.88 -9.7,-7 -18.49,-13.48 -26.38,-19.44 -116.77,-88.22 -218.48,-192.58 -303.71,-308.38 -193.59,-263.03 -302.07,-585.2 -309.17,-911.74 -7.1,-326.7 87.25,-657.77 299.3,-938.43 109.55,-144.99 235.52,-260.73 387.21,-358.98 39.52,30.44 125.91,94.44 264.92,153.58 4.72,3.49 3.7,7.03 -0.04,11.16 -180.76,122.34 -275.96,203.75 -413.87,398.61 -143.39,202.61 -211.38,439.86 -213.87,677.14 -2.48,237.54 60.65,475.06 179.49,677.9 84.08,143.52 196.02,269.64 332.29,366.02 212.65,150.16 450.24,218.17 683.93,218.17 200.7,0 398.53,-50.12 575.24,-141.42 176.73,-91.31 332.36,-223.8 448.67,-388.51 135.44,-191.82 217.57,-427.45 217.57,-692.78 0,-280.79 -47.95,-490.73 -138.41,-650.17 -90.06,-158.73 -222.71,-268 -392.47,-347.9 -196.48,-92.84 -414.71,-131.08 -630.03,-168.8 -325.23,-56.97 -643.9,-112.8 -878.74,-352.81 -45.73,-46.41 -85.77,-95.41 -120.33,-146.35 -141.68,-208.81 -190.07,-448.99 -161.71,-677.63 28.35,-228.55 133.42,-445.69 298.65,-608.53 42.17,-41.55 88.36,-79.64 138.25,-113.54 43.98,-29.97 89.64,-55.9 136.53,-77.89 222.38,-104.33 470.16,-118.49 696.98,-55.66 226.82,62.83 432.78,202.64 571.51,406.26 29.49,43.28 56,89.57 79.06,138.74 3.22,6.89 1.22,14.88 -4.36,19.55l-19.65 16.26 -0.99 0.76z"/>
 </g>
</svg>
